<svg width="32" height="32" viewBox="0 0 32 32" fill="none" xmlns="http://www.w3.org/2000/svg">
<path d="M12.3909 6.18182C10.0601 6.18182 9.23039 6.34205 8.37745 6.79821C7.691 7.16532 7.16532 7.691 6.79821 8.37745C6.34205 9.23039 6.18182 10.0601 6.18182 12.3909V19.6091C6.18182 21.9399 6.34205 22.7696 6.79821 23.6226C7.16532 24.309 7.691 24.8347 8.37745 25.2018C9.23039 25.6579 10.0601 25.8182 12.3909 25.8182H19.6091C21.9399 25.8182 22.7696 25.6579 23.6226 25.2018C24.309 24.8347 24.8347 24.309 25.2018 23.6226C25.6579 22.7696 25.8182 21.9399 25.8182 19.6091V12.3909C25.8182 10.0601 25.6579 9.23039 25.2018 8.37745C24.8347 7.691 24.309 7.16532 23.6226 6.79821C22.7696 6.34205 21.9399 6.18182 19.6091 6.18182H12.3909ZM12.3909 4H19.6091C22.5268 4 23.5848 4.30379 24.6515 4.87425C25.7182 5.44471 26.5553 6.28184 27.1257 7.34851C27.6962 8.41517 28 9.4732 28 12.3909V19.6091C28 22.5268 27.6962 23.5848 27.1257 24.6515C26.5553 25.7182 25.7182 26.5553 24.6515 27.1257C23.5848 27.6962 22.5268 28 19.6091 28H12.3909C9.4732 28 8.41517 27.6962 7.34851 27.1257C6.28184 26.5553 5.44471 25.7182 4.87425 24.6515C4.30379 23.5848 4 22.5268 4 19.6091V12.3909C4 9.4732 4.30379 8.41517 4.87425 7.34851C5.44471 6.28184 6.28184 5.44471 7.34851 4.87425C8.41517 4.30379 9.4732 4 12.3909 4ZM12.7273 21.4545C12.7273 22.057 12.2389 22.5455 11.6364 22.5455C11.0339 22.5455 10.5455 22.057 10.5455 21.4545V14.9091C10.5455 14.3066 11.0339 13.8182 11.6364 13.8182C12.2389 13.8182 12.7273 14.3066 12.7273 14.9091V21.4545ZM17.0909 21.4545C17.0909 22.057 16.6025 22.5455 16 22.5455C15.3975 22.5455 14.9091 22.057 14.9091 21.4545V10.5455C14.9091 9.94296 15.3975 9.45455 16 9.45455C16.6025 9.45455 17.0909 9.94296 17.0909 10.5455V21.4545ZM21.4545 21.4545C21.4545 22.057 20.9661 22.5455 20.3636 22.5455C19.7611 22.5455 19.2727 22.057 19.2727 21.4545V17.0909C19.2727 16.4884 19.7611 16 20.3636 16C20.9661 16 21.4545 16.4884 21.4545 17.0909V21.4545Z" fill="#E2E8F0"/>
</svg>
