<svg width="30" height="30" viewBox="0 0 30 30" fill="none" xmlns="http://www.w3.org/2000/svg">
<rect width="30" height="30" rx="6" fill="white"/>
<path d="M21.3002 8.71022C21.2077 8.61752 21.0978 8.54397 20.9768 8.49379C20.8559 8.44361 20.7262 8.41778 20.5952 8.41778C20.4643 8.41778 20.3346 8.44361 20.2136 8.49379C20.0926 8.54397 19.9827 8.61752 19.8902 8.71022L15.0002 13.5902L10.1102 8.70022C10.0176 8.60764 9.90773 8.5342 9.78677 8.4841C9.6658 8.43399 9.53615 8.4082 9.40522 8.4082C9.27429 8.4082 9.14464 8.43399 9.02368 8.4841C8.90272 8.5342 8.79281 8.60764 8.70022 8.70022C8.60764 8.79281 8.5342 8.90272 8.4841 9.02368C8.43399 9.14464 8.4082 9.27429 8.4082 9.40522C8.4082 9.53615 8.43399 9.6658 8.4841 9.78677C8.5342 9.90773 8.60764 10.0176 8.70022 10.1102L13.5902 15.0002L8.70022 19.8902C8.60764 19.9828 8.5342 20.0927 8.4841 20.2137C8.43399 20.3346 8.4082 20.4643 8.4082 20.5952C8.4082 20.7262 8.43399 20.8558 8.4841 20.9768C8.5342 21.0977 8.60764 21.2076 8.70022 21.3002C8.79281 21.3928 8.90272 21.4662 9.02368 21.5163C9.14464 21.5665 9.27429 21.5922 9.40522 21.5922C9.53615 21.5922 9.6658 21.5665 9.78677 21.5163C9.90773 21.4662 10.0176 21.3928 10.1102 21.3002L15.0002 16.4102L19.8902 21.3002C19.9828 21.3928 20.0927 21.4662 20.2137 21.5163C20.3346 21.5665 20.4643 21.5922 20.5952 21.5922C20.7262 21.5922 20.8558 21.5665 20.9768 21.5163C21.0977 21.4662 21.2076 21.3928 21.3002 21.3002C21.3928 21.2076 21.4662 21.0977 21.5163 20.9768C21.5665 20.8558 21.5922 20.7262 21.5922 20.5952C21.5922 20.4643 21.5665 20.3346 21.5163 20.2137C21.4662 20.0927 21.3928 19.9828 21.3002 19.8902L16.4102 15.0002L21.3002 10.1102C21.6802 9.73022 21.6802 9.09022 21.3002 8.71022Z" fill="#014751"/>
</svg>
