<svg width="24" height="24" viewBox="0 0 24 24" fill="none" xmlns="http://www.w3.org/2000/svg">
<path fill-rule="evenodd" clip-rule="evenodd" d="M14.5562 8.10185C15.0523 8.13286 15.4294 8.56015 15.3983 9.05624L14.8983 17.0562C14.8673 17.5523 14.44 17.9294 13.944 17.8983C13.4479 17.8673 13.0708 17.44 13.1019 16.944L13.6019 8.94396C13.6329 8.44787 14.0601 8.07085 14.5562 8.10185Z" fill="#475569"/>
<path fill-rule="evenodd" clip-rule="evenodd" d="M9.44396 8.10185C8.94787 8.13286 8.57084 8.56015 8.60185 9.05624L9.10185 17.0562C9.13286 17.5523 9.56015 17.9294 10.0562 17.8983C10.5523 17.8673 10.9294 17.44 10.8983 16.944L10.3983 8.94396C10.3673 8.44787 9.94005 8.07085 9.44396 8.10185Z" fill="#475569"/>
<path fill-rule="evenodd" clip-rule="evenodd" d="M3.0001 4.1001C2.50304 4.1001 2.1001 4.50304 2.1001 5.0001C2.1001 5.49715 2.50304 5.9001 3.0001 5.9001H4.18053L5.33515 18.2161C5.38049 18.6999 5.41929 19.1139 5.47818 19.4534C5.5403 19.8117 5.63512 20.1568 5.82907 20.4828C6.12327 20.9773 6.55794 21.3732 7.07776 21.6199C7.42046 21.7826 7.7729 21.8448 8.13539 21.8732C8.47897 21.9001 8.89479 21.9001 9.38076 21.9001H14.6194C15.1054 21.9001 15.5212 21.9001 15.8648 21.8732C16.2273 21.8448 16.5797 21.7826 16.9224 21.6199C17.4423 21.3732 17.8769 20.9773 18.1711 20.4828C18.3651 20.1568 18.4599 19.8117 18.522 19.4534C18.5809 19.1139 18.6197 18.6999 18.665 18.2161L19.8197 5.9001H21.0001C21.4972 5.9001 21.9001 5.49715 21.9001 5.0001C21.9001 4.50304 21.4972 4.1001 21.0001 4.1001H15.7957C15.3894 2.38008 13.8442 1.1001 12.0001 1.1001C10.1559 1.1001 8.61076 2.38008 8.20446 4.1001H3.0001ZM7.12417 18.0148C7.17351 18.541 7.20632 18.8842 7.25171 19.1459C7.29519 19.3966 7.33958 19.5013 7.37601 19.5625C7.48761 19.7501 7.65248 19.9002 7.84966 19.9938C7.91403 20.0244 8.02234 20.0588 8.27607 20.0787C8.54087 20.0995 8.88556 20.1001 9.41413 20.1001H14.5861C15.1146 20.1001 15.4593 20.0995 15.7241 20.0787C15.9779 20.0588 16.0862 20.0244 16.1505 19.9938C16.3477 19.9002 16.5126 19.7501 16.6242 19.5625C16.6606 19.5013 16.705 19.3966 16.7485 19.1459C16.7939 18.8842 16.8267 18.541 16.876 18.0148L18.0118 5.9001H5.98842L7.12417 18.0148ZM12.0001 2.9001C11.1624 2.9001 10.4392 3.39061 10.1022 4.1001H13.898C13.561 3.39061 12.8378 2.9001 12.0001 2.9001Z" fill="#475569"/>
</svg>
