<svg width="30" height="30" viewBox="0 0 30 30" fill="none" xmlns="http://www.w3.org/2000/svg">
<path d="M8.75 7.0002C8.75 6.72017 8.75 6.58216 8.76667 6.46615C8.8197 6.09953 8.99589 5.75954 9.2685 5.49781C9.5411 5.23608 9.89523 5.06692 10.2771 5.016C10.3958 5 10.5417 5 10.8333 5C11.125 5 11.2688 5 11.3896 5.016C11.7714 5.06692 12.1256 5.23608 12.3982 5.49781C12.6708 5.75954 12.847 6.09953 12.9 6.46615C12.9167 6.58016 12.9167 6.72017 12.9167 7.0002C12.9167 7.28023 12.9167 7.41824 12.9 7.53425C12.847 7.90087 12.6708 8.24086 12.3982 8.50259C12.1256 8.76432 11.7714 8.93348 11.3896 8.9844C11.2708 9.0004 11.125 9.0004 10.8333 9.0004C10.5417 9.0004 10.3979 9.0004 10.2771 8.9844C9.89523 8.93348 9.5411 8.76432 9.2685 8.50259C8.99589 8.24086 8.8197 7.90087 8.76667 7.53425C8.75 7.42024 8.75 7.28023 8.75 7.0002ZM8.75 15.001C8.75 14.721 8.75 14.583 8.76667 14.4669C8.8197 14.1003 8.99589 13.7603 9.2685 13.4986C9.5411 13.2369 9.89523 13.0677 10.2771 13.0168C10.3958 13.0008 10.5417 13.0008 10.8333 13.0008C11.125 13.0008 11.2688 13.0008 11.3896 13.0168C11.7714 13.0677 12.1256 13.2369 12.3982 13.4986C12.6708 13.7603 12.847 14.1003 12.9 14.4669C12.9167 14.581 12.9167 14.721 12.9167 15.001C12.9167 15.281 12.9167 15.419 12.9 15.5351C12.847 15.9017 12.6708 16.2417 12.3982 16.5034C12.1256 16.7651 11.7714 16.9343 11.3896 16.9852C11.2708 17.0012 11.125 17.0012 10.8333 17.0012C10.5417 17.0012 10.3979 17.0012 10.2771 16.9852C9.89523 16.9343 9.5411 16.7651 9.2685 16.5034C8.99589 16.2417 8.8197 15.9017 8.76667 15.5351C8.75 15.421 8.75 15.281 8.75 15.001ZM8.75 23.0018C8.75 22.7238 8.75 22.5838 8.76667 22.4677C8.82001 22.1018 8.99608 21.7625 9.26824 21.5012C9.5404 21.2399 9.89382 21.0708 10.275 21.0196C10.3979 21.0036 10.5417 21.0036 10.8313 21.0036C11.1208 21.0036 11.2687 21.0036 11.3875 21.0196C11.7687 21.0708 12.1221 21.2399 12.3943 21.5012C12.6664 21.7625 12.8425 22.1018 12.8958 22.4677C12.9125 22.5838 12.9125 22.7238 12.9125 23.0018C12.9125 23.2798 12.9125 23.4198 12.8958 23.5359C12.8425 23.9018 12.6664 24.2411 12.3943 24.5024C12.1221 24.7637 11.7687 24.9328 11.3875 24.984C11.2667 25 11.1208 25 10.8313 25C10.5417 25 10.3958 25 10.275 24.984C9.89382 24.9328 9.5404 24.7637 9.26824 24.5024C8.99608 24.2411 8.82001 23.9018 8.76667 23.5359C8.75 23.4198 8.75 23.2798 8.75 23.0018ZM17.0833 7.0002C17.0833 6.72017 17.0833 6.58216 17.1 6.46615C17.153 6.09953 17.3292 5.75954 17.6018 5.49781C17.8744 5.23608 18.2286 5.06692 18.6104 5.016C18.7292 5 18.875 5 19.1667 5C19.4583 5 19.6021 5 19.7229 5.016C20.1048 5.06692 20.4589 5.23608 20.7315 5.49781C21.0041 5.75954 21.1803 6.09953 21.2333 6.46615C21.25 6.58016 21.25 6.72017 21.25 7.0002C21.25 7.28023 21.25 7.41824 21.2333 7.53425C21.1803 7.90087 21.0041 8.24086 20.7315 8.50259C20.4589 8.76432 20.1048 8.93348 19.7229 8.9844C19.6042 9.0004 19.4583 9.0004 19.1667 9.0004C18.875 9.0004 18.7312 9.0004 18.6104 8.9844C18.2286 8.93348 17.8744 8.76432 17.6018 8.50259C17.3292 8.24086 17.153 7.90087 17.1 7.53425C17.0833 7.42024 17.0833 7.28023 17.0833 7.0002ZM17.0833 15.001C17.0833 14.721 17.0833 14.583 17.1 14.4669C17.153 14.1003 17.3292 13.7603 17.6018 13.4986C17.8744 13.2369 18.2286 13.0677 18.6104 13.0168C18.7292 13.0008 18.875 13.0008 19.1667 13.0008C19.4583 13.0008 19.6021 13.0008 19.7229 13.0168C20.1048 13.0677 20.4589 13.2369 20.7315 13.4986C21.0041 13.7603 21.1803 14.1003 21.2333 14.4669C21.25 14.581 21.25 14.721 21.25 15.001C21.25 15.281 21.25 15.419 21.2333 15.5351C21.1803 15.9017 21.0041 16.2417 20.7315 16.5034C20.4589 16.7651 20.1048 16.9343 19.7229 16.9852C19.6042 17.0012 19.4583 17.0012 19.1667 17.0012C18.875 17.0012 18.7312 17.0012 18.6104 16.9852C18.2286 16.9343 17.8744 16.7651 17.6018 16.5034C17.3292 16.2417 17.153 15.9017 17.1 15.5351C17.0833 15.421 17.0833 15.281 17.0833 15.001ZM17.0833 23.0018C17.0833 22.7238 17.0833 22.5838 17.1 22.4677C17.1533 22.1018 17.3294 21.7625 17.6016 21.5012C17.8737 21.2399 18.2272 21.0708 18.6083 21.0196C18.7313 21.0036 18.875 21.0036 19.1646 21.0036C19.4562 21.0036 19.6021 21.0036 19.7208 21.0196C20.102 21.0708 20.4554 21.2399 20.7276 21.5012C20.9997 21.7625 21.1758 22.1018 21.2292 22.4677C21.2458 22.5838 21.2458 22.7238 21.2458 23.0018C21.2458 23.2798 21.2458 23.4198 21.2292 23.5359C21.1758 23.9018 20.9997 24.2411 20.7276 24.5024C20.4554 24.7637 20.102 24.9328 19.7208 24.984C19.6 25 19.4542 25 19.1646 25C18.875 25 18.7292 25 18.6083 24.984C18.2272 24.9328 17.8737 24.7637 17.6016 24.5024C17.3294 24.2411 17.1533 23.9018 17.1 23.5359C17.0833 23.4198 17.0833 23.2798 17.0833 23.0018Z" fill="#014751"/>
</svg>
