<svg width="24" height="24" viewBox="0 0 24 24" fill="none" xmlns="http://www.w3.org/2000/svg">
<path fill-rule="evenodd" clip-rule="evenodd" d="M14.2594 7.47804L5.22228 16.5152C5.01599 16.7215 4.9001 17.0012 4.9001 17.293L4.9001 19.0001C4.9001 19.0553 4.94487 19.1001 5.0001 19.1001H6.7072C6.99894 19.1001 7.27873 18.9842 7.48502 18.7779L16.5221 9.74079L14.2594 7.47804ZM15.5322 6.20525L17.7949 8.46799L18.9263 7.33662C19.1606 7.10231 19.1606 6.72241 18.9263 6.48809L17.5121 5.07388C17.2778 4.83957 16.8979 4.83957 16.6635 5.07388L15.5322 6.20525ZM3.94949 15.2424L15.3907 3.80109C16.328 2.86383 17.8476 2.86383 18.7849 3.80109L20.1991 5.2153C21.1363 6.15256 21.1363 7.67216 20.1991 8.60941L8.75781 20.0507C8.21396 20.5946 7.47633 20.9001 6.7072 20.9001L5.0001 20.9001C3.95076 20.9001 3.1001 20.0494 3.1001 19.0001L3.1001 17.293C3.1001 16.5239 3.40563 15.7862 3.94949 15.2424Z" fill="#014751"/>
</svg>
