<svg width="32" height="32" viewBox="0 0 32 32" fill="none" xmlns="http://www.w3.org/2000/svg">
<path fill-rule="evenodd" clip-rule="evenodd" d="M16.25 6.45571C16.0875 6.40315 15.9125 6.40315 15.75 6.45571C15.7321 6.46149 15.6565 6.48794 15.456 6.65745C15.2446 6.83612 14.9845 7.09368 14.5699 7.50648L7.33534 14.7093C6.82812 15.2143 6.71987 15.333 6.64561 15.4537C6.56429 15.5858 6.50436 15.7298 6.46803 15.8805C6.43485 16.0181 6.42705 16.1783 6.42705 16.8925V23.5701C6.42705 24.1539 6.428 24.5191 6.45058 24.7943C6.472 25.0553 6.5067 25.1273 6.51523 25.1439C6.59279 25.2955 6.71655 25.4187 6.86877 25.4959C6.8855 25.5044 6.95777 25.539 7.21998 25.5603C7.49635 25.5828 7.86314 25.5837 8.44951 25.5837H12.0899V21.2881C12.0899 19.1381 13.8405 17.3952 16 17.3952C18.1595 17.3952 19.9101 19.1381 19.9101 21.2881V25.5837H23.5505C24.1369 25.5837 24.5036 25.5828 24.78 25.5603C25.0422 25.539 25.1145 25.5044 25.1312 25.4959C25.2835 25.4187 25.4072 25.2955 25.4848 25.1439C25.4933 25.1273 25.528 25.0553 25.5494 24.7943C25.572 24.5191 25.5729 24.1539 25.5729 23.5701V16.8925C25.5729 16.1783 25.5651 16.0181 25.532 15.8805C25.4956 15.7298 25.4357 15.5858 25.3544 15.4537C25.2801 15.333 25.1719 15.2143 24.6647 14.7093L17.4301 7.50648C17.0155 7.09368 16.7554 6.83612 16.5441 6.65745C16.3435 6.48794 16.2679 6.46148 16.25 6.45571ZM15 4.15768C15.65 3.94744 16.35 3.94744 17 4.15768C17.4439 4.30129 17.7994 4.54888 18.1147 4.81542C18.4109 5.06572 18.7412 5.39464 19.1144 5.76628L26.3808 13.0007C26.4063 13.0261 26.4315 13.0512 26.4565 13.0761C26.8489 13.4661 27.18 13.7952 27.4237 14.1912C27.6381 14.5395 27.7961 14.9192 27.8919 15.3164C28.0007 15.768 28.0004 16.2338 27.9999 16.7858C27.9999 16.821 27.9999 16.8566 27.9999 16.8925V23.6149C27.9999 24.1404 27.9999 24.6056 27.9683 24.991C27.9346 25.4015 27.8591 25.8268 27.6472 26.2409C27.337 26.8471 26.8419 27.34 26.233 27.6489C25.8172 27.8598 25.3899 27.935 24.9776 27.9686C24.5905 28 24.1233 28 23.5954 28H18.951C18.1403 28 17.4831 27.3457 17.4831 26.5386V21.2881C17.4831 20.4726 16.8191 19.8115 16 19.8115C15.1809 19.8115 14.5169 20.4726 14.5169 21.2881V26.5386C14.5169 27.3457 13.8597 28 13.049 28H8.40456C7.87669 28 7.40952 28 7.02235 27.9686C6.61006 27.935 6.18285 27.8598 5.76696 27.6489C5.15808 27.34 4.66304 26.8471 4.3528 26.2409C4.1409 25.8268 4.06538 25.4015 4.03169 24.991C4.00006 24.6056 4.00008 24.1404 4.00011 23.6149L4.00011 16.8925C4.00011 16.8566 4.00008 16.821 4.00005 16.7858C3.99962 16.2339 3.99925 15.768 4.10815 15.3164C4.20393 14.9192 4.36191 14.5395 4.5763 14.1912C4.82002 13.7952 5.15113 13.4661 5.54347 13.0761C5.56848 13.0512 5.59373 13.0261 5.61923 13.0007L12.8856 5.76626C13.2588 5.39462 13.5891 5.06572 13.8853 4.81542C14.2006 4.54888 14.5561 4.30129 15 4.15768Z" fill="#014751"/>
</svg>
