<svg width="32" height="32" viewBox="0 0 32 32" fill="none" xmlns="http://www.w3.org/2000/svg">
<path fill-rule="evenodd" clip-rule="evenodd" d="M17.9857 5.72392C20.2778 3.43187 23.9939 3.43187 26.286 5.72392C28.578 8.01596 28.578 11.7321 26.286 14.0241L24.8573 15.4528C24.3884 15.9217 23.6283 15.9217 23.1595 15.4528C22.6907 14.984 22.6907 14.2239 23.1595 13.7551L24.5882 12.3264C25.9426 10.972 25.9426 8.77608 24.5882 7.42169C23.2338 6.0673 21.0379 6.0673 19.6835 7.42169L14.9675 12.1377C13.6131 13.4921 13.6131 15.688 14.9675 17.0424C15.4363 17.5112 15.4363 18.2714 14.9675 18.7402C14.4987 19.209 13.7385 19.209 13.2697 18.7402C10.9777 16.4481 10.9777 12.732 13.2697 10.44L17.9857 5.72392ZM17.0425 13.2696C17.5114 12.8008 18.2715 12.8008 18.7403 13.2696C21.0323 15.5616 21.0323 19.2778 18.7403 21.5698L14.0243 26.2859C11.7322 28.5779 8.01608 28.5779 5.72404 26.2859C3.43199 23.9938 3.43199 20.2777 5.72404 17.9856L7.21978 16.4899C7.6886 16.0211 8.44872 16.0211 8.91755 16.4899C9.38638 16.9587 9.38638 17.7188 8.91755 18.1877L7.42181 19.6834C6.06742 21.0378 6.06742 23.2337 7.42181 24.5881C8.7762 25.9425 10.9721 25.9425 12.3265 24.5881L17.0425 19.872C18.3969 18.5176 18.3969 16.3217 17.0425 14.9674C16.5737 14.4985 16.5737 13.7384 17.0425 13.2696Z" fill="#E2E8F0"/>
</svg>
