<svg width="24" height="24" viewBox="0 0 24 24" fill="none" xmlns="http://www.w3.org/2000/svg">
<path d="M10.5899 13.4098C10.9999 13.7998 10.9999 14.4398 10.5899 14.8298C10.1999 15.2198 9.55995 15.2198 9.16995 14.8298C7.21995 12.8798 7.21995 9.70982 9.16995 7.75982L12.7099 4.21982C14.6599 2.26982 17.8299 2.26982 19.7799 4.21982C21.7299 6.16982 21.7299 9.33982 19.7799 11.2898L18.2899 12.7798C18.2999 11.9598 18.1699 11.1398 17.8899 10.3598L18.3599 9.87982C19.5399 8.70982 19.5399 6.80982 18.3599 5.63982C17.1899 4.45982 15.2899 4.45982 14.1199 5.63982L10.5899 9.16982C9.40995 10.3398 9.40995 12.2398 10.5899 13.4098ZM13.4099 9.16982C13.7999 8.77982 14.4399 8.77982 14.8299 9.16982C16.7799 11.1198 16.7799 14.2898 14.8299 16.2398L11.2899 19.7798C9.33995 21.7298 6.16995 21.7298 4.21995 19.7798C2.26995 17.8298 2.26995 14.6598 4.21995 12.7098L5.70995 11.2198C5.69995 12.0398 5.82995 12.8598 6.10995 13.6498L5.63995 14.1198C4.45995 15.2898 4.45995 17.1898 5.63995 18.3598C6.80995 19.5398 8.70995 19.5398 9.87995 18.3598L13.4099 14.8298C14.5899 13.6598 14.5899 11.7598 13.4099 10.5898C12.9999 10.1998 12.9999 9.55982 13.4099 9.16982Z" fill="#475569"/>
</svg>
