<svg width="32" height="32" viewBox="0 0 32 32" fill="none" xmlns="http://www.w3.org/2000/svg">
<path fill-rule="evenodd" clip-rule="evenodd" d="M17.9807 5.71903C20.2728 3.42699 23.9889 3.42699 26.281 5.71903C28.573 8.01108 28.573 11.7272 26.281 14.0193L24.8523 15.448C24.3834 15.9168 23.6233 15.9168 23.1545 15.448C22.6857 14.9791 22.6857 14.219 23.1545 13.7502L24.5832 12.3215C25.9376 10.9671 25.9376 8.7712 24.5832 7.41681C23.2288 6.06242 21.0329 6.06242 19.6785 7.41681L14.9625 12.1328C13.6081 13.4872 13.6081 15.6831 14.9625 17.0375C15.4313 17.5064 15.4313 18.2665 14.9625 18.7353C14.4936 19.2041 13.7335 19.2041 13.2647 18.7353C10.9727 16.4433 10.9727 12.7271 13.2647 10.4351L17.9807 5.71903ZM17.0375 13.2647C17.5064 12.7959 18.2665 12.7959 18.7353 13.2647C21.0273 15.5567 21.0273 19.2729 18.7353 21.5649L14.0193 26.281C11.7272 28.573 8.01108 28.573 5.71903 26.281C3.42699 23.9889 3.42699 20.2728 5.71903 17.9807L7.21477 16.485C7.6836 16.0162 8.44372 16.0162 8.91254 16.485C9.38137 16.9538 9.38137 17.7139 8.91254 18.1828L7.41681 19.6785C6.06242 21.0329 6.06242 23.2288 7.41681 24.5832C8.7712 25.9376 10.9671 25.9376 12.3215 24.5832L17.0375 19.8672C18.3919 18.5128 18.3919 16.3169 17.0375 14.9625C16.5687 14.4936 16.5687 13.7335 17.0375 13.2647Z" fill="#014751"/>
</svg>
