<svg width="24" height="24" viewBox="0 0 24 24" fill="none" xmlns="http://www.w3.org/2000/svg">
<path fill-rule="evenodd" clip-rule="evenodd" d="M12.0001 13.0001C12.5524 13.0001 13.0001 13.4478 13.0001 14.0001V16.0001C13.0001 16.5524 12.5524 17.0001 12.0001 17.0001C11.4478 17.0001 11.0001 16.5524 11.0001 16.0001V14.0001C11.0001 13.4478 11.4478 13.0001 12.0001 13.0001Z" fill="#014751"/>
<path fill-rule="evenodd" clip-rule="evenodd" d="M18.7707 8.52517C18.1922 8.23044 17.5404 8.15252 16.9001 8.12224V7.0001C16.9001 4.2939 14.7063 2.1001 12.0001 2.1001C9.2939 2.1001 7.1001 4.2939 7.1001 7.0001V8.12224C6.45982 8.15252 5.80799 8.23044 5.22954 8.52517C4.4957 8.89908 3.89908 9.4957 3.52517 10.2295C3.28626 10.6984 3.18938 11.2005 3.14396 11.7564C3.10008 12.2935 3.10009 12.9543 3.1001 13.7624V16.2378C3.10009 17.0459 3.10008 17.7067 3.14396 18.2438C3.18938 18.7997 3.28626 19.3018 3.52517 19.7707C3.89908 20.5045 4.4957 21.1011 5.22954 21.475C5.69843 21.7139 6.2005 21.8108 6.75642 21.8562C7.29349 21.9001 7.95434 21.9001 8.76239 21.9001H15.2378C16.0459 21.9001 16.7067 21.9001 17.2438 21.8562C17.7997 21.8108 18.3018 21.7139 18.7707 21.475C19.5045 21.1011 20.1011 20.5045 20.475 19.7707C20.7139 19.3018 20.8108 18.7997 20.8562 18.2438C20.9001 17.7067 20.9001 17.0459 20.9001 16.2378V13.7624C20.9001 12.9543 20.9001 12.2935 20.8562 11.7564C20.8108 11.2005 20.7139 10.6984 20.475 10.2295C20.1011 9.4957 19.5045 8.89908 18.7707 8.52517ZM6.90299 9.93798C6.45839 9.97431 6.21957 10.0409 6.04672 10.129C5.65158 10.3303 5.33032 10.6516 5.12898 11.0467C5.04091 11.2196 4.97431 11.4584 4.93798 11.903C4.9008 12.3581 4.9001 12.9452 4.9001 13.8001V16.2001C4.9001 17.055 4.9008 17.6421 4.93798 18.0972C4.97431 18.5418 5.04091 18.7806 5.12898 18.9535C5.33032 19.3486 5.65158 19.6699 6.04672 19.8712C6.21957 19.9593 6.45839 20.0259 6.90299 20.0622C7.3581 20.0994 7.94517 20.1001 8.8001 20.1001H15.2001C16.055 20.1001 16.6421 20.0994 17.0972 20.0622C17.5418 20.0259 17.7806 19.9593 17.9535 19.8712C18.3486 19.6699 18.6699 19.3486 18.8712 18.9535C18.9593 18.7806 19.0259 18.5418 19.0622 18.0972C19.0994 17.6421 19.1001 17.055 19.1001 16.2001V13.8001C19.1001 12.9452 19.0994 12.3581 19.0622 11.903C19.0259 11.4584 18.9593 11.2196 18.8712 11.0467C18.6699 10.6516 18.3486 10.3303 17.9535 10.129C17.7806 10.0409 17.5418 9.97431 17.0972 9.93798C16.6421 9.9008 16.055 9.9001 15.2001 9.9001H8.8001C7.94517 9.9001 7.3581 9.9008 6.90299 9.93798ZM15.1001 7.0001C15.1001 5.28802 13.7122 3.9001 12.0001 3.9001C10.288 3.9001 8.9001 5.28802 8.9001 7.0001V8.1001H15.1001V7.0001Z" fill="#014751"/>
<path fill-rule="evenodd" clip-rule="evenodd" d="M13.0001 14.0001C13.0001 13.4478 12.5524 13.0001 12.0001 13.0001C11.4478 13.0001 11.0001 13.4478 11.0001 14.0001V16.0001C11.0001 16.5524 11.4478 17.0001 12.0001 17.0001C12.5524 17.0001 13.0001 16.5524 13.0001 16.0001V14.0001Z" fill="#014751"/>
</svg>
