<svg width="26" height="26" viewBox="0 0 26 26" fill="none" xmlns="http://www.w3.org/2000/svg">
<path fill-rule="evenodd" clip-rule="evenodd" d="M8.40822 2.99951e-07L11.4286 5.7243e-07C12.0598 5.7243e-07 12.5714 0.511675 12.5714 1.14286C12.5714 1.77404 12.0598 2.28571 11.4286 2.28571H8.45714C7.15816 2.28571 6.25266 2.2866 5.5477 2.3442C4.85608 2.40071 4.45872 2.50605 4.15775 2.65941C3.51262 2.98812 2.98812 3.51262 2.65941 4.15775C2.50605 4.45872 2.40071 4.85608 2.3442 5.5477C2.2866 6.25266 2.28571 7.15816 2.28571 8.45714V16.6857C2.28571 17.9847 2.2866 18.8902 2.3442 19.5952C2.40071 20.2868 2.50605 20.6841 2.65941 20.9851C2.98812 21.6302 3.51262 22.1547 4.15775 22.4834C4.45872 22.6368 4.85608 22.7421 5.5477 22.7987C6.25266 22.8563 7.15816 22.8571 8.45714 22.8571H11.4286C12.0598 22.8571 12.5714 23.3688 12.5714 24C12.5714 24.6312 12.0598 25.1429 11.4286 25.1429H8.40819C7.16959 25.1429 6.17057 25.1429 5.36157 25.0768C4.5286 25.0087 3.79696 24.8649 3.12005 24.52C2.04484 23.9722 1.17067 23.098 0.622821 22.0228C0.27792 21.3459 0.134134 20.6143 0.0660781 19.7813C-2.02741e-05 18.9723 -1.11441e-05 17.9732 2.99951e-07 16.7346V8.40822C-1.11441e-05 7.16961 -2.02741e-05 6.17058 0.0660781 5.36157C0.134135 4.5286 0.27792 3.79696 0.62282 3.12005C1.17067 2.04484 2.04484 1.17067 3.12005 0.62282C3.79696 0.27792 4.5286 0.134135 5.36157 0.0660781C6.17058 -2.02741e-05 7.16961 -1.11441e-05 8.40822 2.99951e-07ZM18.6204 7.19188C19.0668 6.74557 19.7904 6.74557 20.2367 7.19188L24.8081 11.7633C25.0224 11.9776 25.1429 12.2683 25.1429 12.5714C25.1429 12.8745 25.0224 13.1652 24.8081 13.3796L20.2367 17.951C19.7904 18.3973 19.0668 18.3973 18.6204 17.951C18.1741 17.5047 18.1741 16.781 18.6204 16.3347L21.2409 13.7143H10.2857C9.65453 13.7143 9.14286 13.2026 9.14286 12.5714C9.14286 11.9402 9.65453 11.4286 10.2857 11.4286H21.2409L18.6204 8.80812C18.1741 8.36181 18.1741 7.63819 18.6204 7.19188Z" fill="#FF4040"/>
</svg>
