<svg width="64" height="64" viewBox="0 0 64 64" fill="none" xmlns="http://www.w3.org/2000/svg">
<path fill-rule="evenodd" clip-rule="evenodd" d="M32 34.6263C33.4893 34.6263 34.6966 35.8021 34.6966 37.2525V42.5051C34.6966 43.9555 33.4893 45.1313 32 45.1313C30.5107 45.1313 29.3034 43.9555 29.3034 42.5051V37.2525C29.3034 35.8021 30.5107 34.6263 32 34.6263Z" fill="#014751"/>
<path fill-rule="evenodd" clip-rule="evenodd" d="M50.2577 22.8739C48.6978 22.0999 46.9401 21.8953 45.2135 21.8157V18.8687C45.2135 11.7615 39.2976 6 32 6C24.7024 6 18.7865 11.7615 18.7865 18.8687V21.8157C17.0599 21.8953 15.3022 22.0999 13.7423 22.8739C11.7634 23.8559 10.1546 25.4228 9.14627 27.35C8.50202 28.5815 8.24076 29.9001 8.11828 31.36C7.99995 32.7705 7.99997 34.5061 8 36.6283V43.1293C7.99997 45.2515 7.99995 46.987 8.11828 48.3976C8.24076 49.8575 8.50202 51.1761 9.14627 52.4075C10.1546 54.3348 11.7634 55.9017 13.7423 56.8836C15.0067 57.5111 16.3606 57.7655 17.8597 57.8848C19.308 58 21.0901 58 23.2691 58H40.7309C42.9099 58 44.692 58 46.1403 57.8848C47.6394 57.7655 48.9933 57.5111 50.2577 56.8836C52.2366 55.9017 53.8454 54.3348 54.8537 52.4075C55.498 51.1761 55.7592 49.8575 55.8817 48.3976C56.0001 46.987 56 45.2515 56 43.1293V36.6283C56 34.5061 56.0001 32.7705 55.8817 31.36C55.7592 29.9001 55.498 28.5815 54.8537 27.35C53.8454 25.4228 52.2366 23.8559 50.2577 22.8739ZM18.255 26.5843C17.0561 26.6797 16.412 26.8547 15.9459 27.086C14.8804 27.6147 14.0141 28.4584 13.4712 29.4962C13.2337 29.9501 13.0541 30.5773 12.9561 31.745C12.8558 32.9402 12.8539 34.482 12.8539 36.7273V43.0303C12.8539 45.2756 12.8558 46.8174 12.9561 48.0126C13.0541 49.1802 13.2337 49.8075 13.4712 50.2614C14.0141 51.2991 14.8804 52.1429 15.9459 52.6716C16.412 52.9029 17.0561 53.0778 18.255 53.1732C19.4822 53.2709 21.0654 53.2727 23.3708 53.2727H40.6292C42.9346 53.2727 44.5178 53.2709 45.745 53.1732C46.9439 53.0778 47.588 52.9029 48.0541 52.6716C49.1196 52.1429 49.9859 51.2991 50.5288 50.2614C50.7663 49.8075 50.946 49.1802 51.0439 48.0126C51.1442 46.8174 51.1461 45.2756 51.1461 43.0303V36.7273C51.1461 34.482 51.1442 32.9402 51.0439 31.745C50.946 30.5773 50.7663 29.9501 50.5288 29.4962C49.9859 28.4584 49.1196 27.6147 48.0541 27.086C47.588 26.8547 46.9439 26.6797 45.745 26.5843C44.5178 26.4867 42.9346 26.4848 40.6292 26.4848H23.3708C21.0654 26.4848 19.4822 26.4867 18.255 26.5843ZM40.3595 18.8687C40.3595 14.3723 36.6169 10.7273 32 10.7273C27.3831 10.7273 23.6405 14.3723 23.6405 18.8687V21.7576H40.3595V18.8687Z" fill="#014751"/>
<path fill-rule="evenodd" clip-rule="evenodd" d="M34.6966 37.2525C34.6966 35.8021 33.4893 34.6263 32 34.6263C30.5107 34.6263 29.3034 35.8021 29.3034 37.2525V42.5051C29.3034 43.9555 30.5107 45.1313 32 45.1313C33.4893 45.1313 34.6966 43.9555 34.6966 42.5051V37.2525Z" fill="#014751"/>
</svg>
