<svg width="32" height="32" viewBox="0 0 32 32" fill="none" xmlns="http://www.w3.org/2000/svg">
<path d="M17.1555 4.04182C17.5858 4.11202 17.9929 4.27991 18.3584 4.57807C18.9572 5.0665 19.2424 5.6822 19.4628 6.58106C19.5192 6.81117 19.6168 7.07943 19.7388 7.33978C20.0187 7.46111 20.2926 7.59597 20.5595 7.74382C20.8229 7.67745 21.076 7.58931 21.278 7.4934C22.6995 6.81866 23.892 6.85411 24.8685 7.92808C24.9511 8.01892 25.0005 8.0791 25.1078 8.21421L25.7412 9.01179C25.9116 9.22629 25.9843 9.32402 26.0918 9.50639C26.7882 10.6881 26.5166 11.7887 25.6364 12.9812C25.4904 13.1791 25.3413 13.4381 25.2165 13.7106C25.2952 14.0006 25.3608 14.2947 25.4128 14.592C25.6371 14.7751 25.8754 14.9356 26.0859 15.0451C26.8953 15.4663 27.4195 15.8881 27.7515 16.5928C27.9542 17.0231 28.0231 17.4653 27.9934 17.9086C27.9777 18.1429 27.9529 18.2735 27.8866 18.566L27.6602 19.566C27.594 19.8585 27.5602 19.987 27.4735 20.2046C27.3096 20.6163 27.0576 20.983 26.6905 21.2791C26.089 21.7641 25.4365 21.9089 24.528 21.9256C24.2981 21.9299 24.0235 21.9657 23.7503 22.0271C23.5727 22.2773 23.3835 22.5189 23.1835 22.7508C23.1869 23.0322 23.2144 23.3088 23.2614 23.5349C23.4497 24.4413 23.4582 25.1222 23.13 25.8288C22.9296 26.2602 22.6359 26.593 22.2793 26.8485C22.0908 26.9835 21.9757 27.046 21.7111 27.1776L20.8064 27.6275C20.5418 27.7591 20.4226 27.8131 20.2022 27.8815C19.7852 28.0107 19.3471 28.0418 18.8904 27.9372C18.1422 27.7658 17.6212 27.3399 17.0367 26.6305C16.8822 26.443 16.671 26.2389 16.4415 26.0551C16.2947 26.0619 16.1475 26.0654 16 26.0654C15.8524 26.0654 15.7052 26.0619 15.5585 26.0551C15.3289 26.2389 15.1178 26.443 14.9633 26.6305C14.3787 27.3399 13.8577 27.7658 13.1095 27.9372C12.6528 28.0418 12.2148 28.0107 11.7978 27.8815C11.5774 27.8131 11.4582 27.7591 11.1936 27.6275L10.2889 27.1776C10.2094 27.1381 10.16 27.1132 10.1024 27.0826C8.78225 26.3817 8.39525 25.187 8.73858 23.5349C8.78558 23.3088 8.81301 23.0322 8.81644 22.7508C8.61644 22.5189 8.42728 22.2773 8.24966 22.0271C7.97646 21.9657 7.70182 21.9299 7.47199 21.9256C6.56345 21.9089 5.91093 21.7641 5.30949 21.2791C4.94233 20.983 4.69032 20.6163 4.52642 20.2046C4.43979 19.987 4.40596 19.8585 4.33974 19.566L4.11332 18.566C4.0432 18.2564 4.01738 18.1183 4.00408 17.8674C3.97914 17.397 4.06742 16.9297 4.30158 16.4864C4.64274 15.8404 5.14772 15.4439 5.91407 15.0451C6.12457 14.9356 6.36289 14.7751 6.5871 14.592C6.63919 14.2947 6.70473 14.0006 6.78343 13.7106C6.65868 13.4381 6.50956 13.1791 6.36351 12.9812C5.4833 11.7887 5.21176 10.6881 5.90815 9.50639C6.01561 9.32402 6.08839 9.22629 6.25875 9.01179L6.89219 8.21421C6.99949 8.0791 7.04881 8.01892 7.1314 7.92808C8.10795 6.85411 9.30045 6.81866 10.7219 7.4934C10.924 7.58931 11.177 7.67745 11.4405 7.74382C11.7074 7.59597 11.9812 7.46111 12.2611 7.33978C12.3831 7.07943 12.4808 6.81117 12.5372 6.58106C12.7576 5.6822 13.0427 5.0665 13.6415 4.57807C14.007 4.27991 14.4141 4.11202 14.8444 4.04182C15.0264 4.01213 15.1463 4.00318 15.3377 4.00079L16.5032 4C16.7976 4 16.928 4.00471 17.1555 4.04182ZM16.5895 6.0528L15.4967 6.05259C14.9934 6.05259 14.7418 6.05259 14.4902 7.07889C14.3505 7.64856 14.0557 8.37633 13.649 8.99893C13.0022 9.21486 12.3939 9.51746 11.8373 9.89329C11.1158 9.82081 10.3878 9.59891 9.87232 9.35423C8.93173 8.90776 8.77337 9.10715 8.45665 9.50594L7.82321 10.3035C7.50649 10.7023 7.34813 10.9017 7.972 11.747C8.32314 12.2227 8.69785 12.9271 8.91515 13.6518C8.69264 14.2669 8.54497 14.9189 8.48341 15.5964C7.97851 16.1447 7.34505 16.605 6.82913 16.8734C5.90499 17.3543 5.9616 17.6043 6.07481 18.1043L6.30123 19.1043C6.41444 19.6043 6.47105 19.8543 7.5084 19.8734C8.08195 19.884 8.84002 20.0121 9.52439 20.2741C9.87198 20.864 10.2949 21.4024 10.7796 21.8757C10.8746 22.6121 10.8264 23.3904 10.7079 23.9604C10.4929 24.9953 10.719 25.1078 11.1714 25.3328L12.076 25.7827C12.5284 26.0076 12.7546 26.1201 13.422 25.3101C13.7962 24.856 14.382 24.3275 15.0229 23.9489C15.3427 23.991 15.6689 24.0128 16 24.0128C16.3311 24.0128 16.6572 23.991 16.9771 23.9489C17.6179 24.3275 18.2038 24.856 18.578 25.3101C19.2454 26.1201 19.4716 26.0076 19.9239 25.7827L20.8286 25.3328C21.2809 25.1078 21.5071 24.9953 21.292 23.9604C21.1735 23.3904 21.1254 22.6121 21.2204 21.8757C21.705 21.4024 22.128 20.864 22.4756 20.2741C23.1599 20.0121 23.918 19.884 24.4915 19.8734C25.5289 19.8543 25.5855 19.6043 25.6987 19.1043L25.9251 18.1043C26.0384 17.6043 26.095 17.3543 25.1708 16.8734C24.6549 16.605 24.0214 16.1447 23.5165 15.5964C23.455 14.9189 23.3073 14.2669 23.0848 13.6518C23.3021 12.9271 23.6768 12.2227 24.0279 11.747C24.6518 10.9017 24.4935 10.7023 24.1767 10.3035L23.5433 9.50594C23.2266 9.10715 23.0682 8.90776 22.1276 9.35423C21.6122 9.59891 20.8841 9.82081 20.1627 9.89329C19.6061 9.51746 18.9978 9.21486 18.351 8.99893C17.9442 8.37633 17.6495 7.64856 17.5098 7.07889C17.273 6.11296 17.0361 6.05614 16.5895 6.0528ZM16 11.6972C18.5015 11.6972 20.5294 13.7649 20.5294 16.3156C20.5294 18.8662 18.5015 20.9339 16 20.9339C13.4984 20.9339 11.4705 18.8662 11.4705 16.3156C11.4705 13.7649 13.4984 11.6972 16 11.6972ZM16 13.7498C14.6102 13.7498 13.4836 14.8985 13.4836 16.3156C13.4836 17.7326 14.6102 18.8813 16 18.8813C17.3897 18.8813 18.5163 17.7326 18.5163 16.3156C18.5163 14.8985 17.3897 13.7498 16 13.7498Z" fill="#014751"/>
</svg>
